<svg width="32" height="33" viewBox="0 0 32 33" fill="none" xmlns="http://www.w3.org/2000/svg">
<g clip-path="url(#clip0_0_458)">
<path d="M32 16.5017C32 7.66421 24.8375 0.501709 16 0.501709C7.1625 0.501709 0 7.66421 0 16.5017C0 24.0017 5.16875 30.3017 12.1375 32.033V21.3892H8.8375V16.5017H12.1375V14.3955C12.1375 8.95171 14.6 6.42671 19.95 6.42671C20.9625 6.42671 22.7125 6.62671 23.4312 6.82671V11.2517C23.0562 11.2142 22.4 11.1892 21.5812 11.1892C18.9562 11.1892 17.9438 12.183 17.9438 14.7642V16.5017H23.1688L22.2687 21.3892H17.9375V32.383C25.8625 31.4267 32 24.683 32 16.5017Z" fill="white"/>
</g>
<defs>
<clipPath id="clip0_0_458">
<rect width="32" height="32" fill="white" transform="translate(0 0.501709)"/>
</clipPath>
</defs>
</svg>
