<svg width="28" height="33" viewBox="0 0 28 33" fill="none" xmlns="http://www.w3.org/2000/svg">
<g clip-path="url(#clip0_0_462)">
<path d="M14.0062 9.31416C10.0312 9.31416 6.82499 12.5204 6.82499 16.4954C6.82499 20.4704 10.0312 23.6767 14.0062 23.6767C17.9812 23.6767 21.1875 20.4704 21.1875 16.4954C21.1875 12.5204 17.9812 9.31416 14.0062 9.31416ZM14.0062 21.1642C11.4375 21.1642 9.33749 19.0704 9.33749 16.4954C9.33749 13.9204 11.4312 11.8267 14.0062 11.8267C16.5812 11.8267 18.675 13.9204 18.675 16.4954C18.675 19.0704 16.575 21.1642 14.0062 21.1642ZM23.1562 9.02041C23.1562 9.95166 22.4062 10.6954 21.4812 10.6954C20.55 10.6954 19.8062 9.94541 19.8062 9.02041C19.8062 8.09541 20.5562 7.34541 21.4812 7.34541C22.4062 7.34541 23.1562 8.09541 23.1562 9.02041ZM27.9125 10.7204C27.8062 8.47666 27.2937 6.48916 25.65 4.85166C24.0125 3.21416 22.025 2.70166 19.7812 2.58916C17.4687 2.45791 10.5375 2.45791 8.22499 2.58916C5.98749 2.69541 3.99999 3.20791 2.35624 4.84541C0.712488 6.48291 0.206238 8.47041 0.0937378 10.7142C-0.0375122 13.0267 -0.0375122 19.9579 0.0937378 22.2704C0.199988 24.5142 0.712488 26.5017 2.35624 28.1392C3.99999 29.7767 5.98124 30.2892 8.22499 30.4017C10.5375 30.5329 17.4687 30.5329 19.7812 30.4017C22.025 30.2954 24.0125 29.7829 25.65 28.1392C27.2875 26.5017 27.8 24.5142 27.9125 22.2704C28.0437 19.9579 28.0437 13.0329 27.9125 10.7204ZM24.925 24.7517C24.4375 25.9767 23.4937 26.9204 22.2625 27.4142C20.4187 28.1454 16.0437 27.9767 14.0062 27.9767C11.9687 27.9767 7.58749 28.1392 5.74999 27.4142C4.52499 26.9267 3.58124 25.9829 3.08749 24.7517C2.35624 22.9079 2.52499 18.5329 2.52499 16.4954C2.52499 14.4579 2.36249 10.0767 3.08749 8.23916C3.57499 7.01416 4.51874 6.07041 5.74999 5.57666C7.59374 4.84541 11.9687 5.01416 14.0062 5.01416C16.0437 5.01416 20.425 4.85166 22.2625 5.57666C23.4875 6.06416 24.4312 7.00791 24.925 8.23916C25.6562 10.0829 25.4875 14.4579 25.4875 16.4954C25.4875 18.5329 25.6562 22.9142 24.925 24.7517Z" fill="white"/>
</g>
<defs>
<clipPath id="clip0_0_462">
<rect width="28" height="32" fill="white" transform="translate(0 0.501709)"/>
</clipPath>
</defs>
</svg>
