<svg width="32" height="33" viewBox="0 0 32 33" fill="none" xmlns="http://www.w3.org/2000/svg">
<g clip-path="url(#clip0_0_132)">
<path fill-rule="evenodd" clip-rule="evenodd" d="M24 32.5H8C5.8783 32.4999 3.84352 31.657 2.34325 30.1568C0.842977 28.6565 9.28184e-05 26.6217 0 24.5L0 8.5C9.28184e-05 6.3783 0.842977 4.34352 2.34325 2.84325C3.84352 1.34298 5.8783 0.500093 8 0.5L24 0.5C26.1217 0.5 28.1566 1.34285 29.6569 2.84315C31.1571 4.34344 32 6.37827 32 8.5V24.5C32 26.6217 31.1571 28.6566 29.6569 30.1569C28.1566 31.6571 26.1217 32.5 24 32.5Z" fill="#2864B4"/>
<path fill-rule="evenodd" clip-rule="evenodd" d="M15 9.5H24C25.1536 9.49993 26.2632 9.05683 27.0995 8.2622C27.9359 7.46758 28.4351 6.38213 28.4941 5.23C28.5532 4.07788 28.1675 2.94708 27.4168 2.07113C26.666 1.19518 25.6076 0.640991 24.46 0.523C24.307 0.5145 24.1555 0.5 24 0.5H8C5.8783 0.500093 3.84352 1.34298 2.34325 2.84325C0.842977 4.34352 9.28184e-05 6.3783 0 8.5L0 24.5C9.28219e-05 20.5218 1.58048 16.7065 4.3935 13.8935C7.20653 11.0805 11.0218 9.50009 15 9.5Z" fill="#417DCD"/>
<path fill-rule="evenodd" clip-rule="evenodd" d="M24 16.5C22.4178 16.5 20.871 16.9692 19.5554 17.8482C18.2399 18.7273 17.2145 19.9767 16.609 21.4385C16.0035 22.9003 15.845 24.5089 16.1537 26.0607C16.4624 27.6126 17.2243 29.038 18.3431 30.1569C19.462 31.2757 20.8874 32.0376 22.4393 32.3463C23.9911 32.655 25.5997 32.4965 27.0615 31.891C28.5233 31.2855 29.7727 30.2602 30.6518 28.9446C31.5308 27.629 32 26.0823 32 24.5V8.5C32 10.6217 31.1572 12.6566 29.6569 14.1569C28.1566 15.6571 26.1217 16.5 24 16.5Z" fill="#0F4B9B"/>
<path d="M9 13H7C6.44772 13 6 13.4477 6 14V25.5C6 26.0523 6.44772 26.5 7 26.5H9C9.55228 26.5 10 26.0523 10 25.5V14C10 13.4477 9.55228 13 9 13Z" fill="white"/>
<path d="M8 11C9.38071 11 10.5 9.88071 10.5 8.5C10.5 7.11929 9.38071 6 8 6C6.61929 6 5.5 7.11929 5.5 8.5C5.5 9.88071 6.61929 11 8 11Z" fill="white"/>
<path fill-rule="evenodd" clip-rule="evenodd" d="M17 14.82C17.4032 14.1152 17.9855 13.5294 18.6879 13.122C19.3904 12.7146 20.188 12.5 21 12.5C23.5435 12.5 26 14 26 18V25.5C26 25.6313 25.9742 25.7614 25.924 25.8827C25.8737 26.0041 25.8001 26.1143 25.7072 26.2072C25.6143 26.3001 25.5041 26.3737 25.3827 26.424C25.2614 26.4742 25.1313 26.5 25 26.5H23C22.8687 26.5 22.7386 26.4742 22.6173 26.424C22.4959 26.3737 22.3857 26.3001 22.2928 26.2072C22.1999 26.1143 22.1263 26.0041 22.076 25.8827C22.0258 25.7614 22 25.6313 22 25.5V18.5C22 17.837 21.7366 17.2011 21.2678 16.7322C20.7989 16.2634 20.163 16 19.5 16C18.837 16 18.2011 16.2634 17.7322 16.7322C17.2634 17.2011 17 17.837 17 18.5V25.5C17 25.6313 16.9742 25.7614 16.924 25.8827C16.8737 26.0041 16.8001 26.1143 16.7072 26.2072C16.6143 26.3001 16.5041 26.3737 16.3827 26.424C16.2614 26.4742 16.1313 26.5 16 26.5H14C13.8687 26.5 13.7386 26.4742 13.6173 26.424C13.4959 26.3737 13.3857 26.3001 13.2928 26.2072C13.1999 26.1143 13.1263 26.0041 13.076 25.8827C13.0258 25.7614 13 25.6313 13 25.5V14C13 13.8687 13.0258 13.7386 13.076 13.6173C13.1263 13.4959 13.1999 13.3857 13.2928 13.2928C13.3857 13.1999 13.4959 13.1263 13.6173 13.076C13.7386 13.0258 13.8687 13 14 13H16C16.1313 13 16.2614 13.0258 16.3827 13.076C16.5041 13.1263 16.6143 13.1999 16.7072 13.2928C16.8001 13.3857 16.8737 13.4959 16.924 13.6173C16.9742 13.7386 17 13.8687 17 14V14.82Z" fill="white"/>
</g>
<defs>
<clipPath id="clip0_0_132">
<rect width="32" height="32" fill="white" transform="translate(0 0.5)"/>
</clipPath>
</defs>
</svg>
