<svg width="28" height="33" viewBox="0 0 28 33" fill="none" xmlns="http://www.w3.org/2000/svg">
<path d="M26 2.50171H1.99375C0.89375 2.50171 0 3.40796 0 4.52046V28.483C0 29.5955 0.89375 30.5017 1.99375 30.5017H26C27.1 30.5017 28 29.5955 28 28.483V4.52046C28 3.40796 27.1 2.50171 26 2.50171ZM8.4625 26.5017H4.3125V13.1392H8.46875V26.5017H8.4625ZM6.3875 11.3142C5.05625 11.3142 3.98125 10.233 3.98125 8.90796C3.98125 7.58296 5.05625 6.50171 6.3875 6.50171C7.7125 6.50171 8.79375 7.58296 8.79375 8.90796C8.79375 10.2392 7.71875 11.3142 6.3875 11.3142ZM24.0187 26.5017H19.8687V20.0017C19.8687 18.4517 19.8375 16.458 17.7125 16.458C15.55 16.458 15.2188 18.1455 15.2188 19.8892V26.5017H11.0688V13.1392H15.05V14.9642H15.1062C15.6625 13.9142 17.0188 12.808 19.0375 12.808C23.2375 12.808 24.0187 15.5767 24.0187 19.1767V26.5017Z" fill="white"/>
</svg>
