<svg width="32" height="32" viewBox="0 0 32 32" fill="none" xmlns="http://www.w3.org/2000/svg">
<g clip-path="url(#clip0_0_214)">
<path d="M23.4875 17.2C22.4625 16.7625 21.275 17.05 20.5688 17.9125L18.4937 20.45C15.6187 18.7813 13.2188 16.3813 11.55 13.5063L14.0813 11.4375C14.9438 10.7313 15.2375 9.54378 14.7937 8.51878L11.7937 1.51878C11.325 0.418779 10.1438 -0.193721 8.975 0.0562794L1.975 1.55628C0.825 1.80003 0 2.81878 0 4.00003C0 18.45 10.95 30.35 25.0063 31.8438C25.6187 31.9063 26.2313 31.9563 26.8563 31.9813H26.8625C27.2437 31.9938 27.6187 32.0063 28 32.0063C29.1812 32.0063 30.2 31.1813 30.4438 30.0313L31.9438 23.0313C32.1937 21.8625 31.5813 20.6813 30.4813 20.2125L23.4813 17.2125L23.4875 17.2ZM27.5938 29C14.1125 28.7813 3.21875 17.8875 3.00625 4.40628L9.20625 3.07503L11.8938 9.35003L9.65 11.1875C8.5125 12.1188 8.21875 13.7375 8.95625 15.0125C10.8875 18.3438 13.6625 21.1188 16.9937 23.05C18.2687 23.7875 19.8875 23.4938 20.8188 22.3563L22.6562 20.1125L28.9312 22.8L27.5938 29Z" fill="white"/>
</g>
<defs>
<clipPath id="clip0_0_214">
<rect width="32" height="32" fill="white"/>
</clipPath>
</defs>
</svg>
