<svg width="36" height="33" viewBox="0 0 36 33" fill="none" xmlns="http://www.w3.org/2000/svg">
<path d="M34.3562 8.25796C33.9625 6.77671 32.8062 5.61421 31.3375 5.22046C28.675 4.50171 18 4.50171 18 4.50171C18 4.50171 7.32499 4.50171 4.66249 5.22046C3.19374 5.61421 2.03749 6.77671 1.64374 8.25796C0.931244 10.9392 0.931244 16.5267 0.931244 16.5267C0.931244 16.5267 0.931244 22.1142 1.64374 24.7955C2.03749 26.2767 3.19374 27.3892 4.66249 27.783C7.32499 28.5017 18 28.5017 18 28.5017C18 28.5017 28.675 28.5017 31.3375 27.783C32.8062 27.3892 33.9625 26.2705 34.3562 24.7955C35.0687 22.1142 35.0687 16.5267 35.0687 16.5267C35.0687 16.5267 35.0687 10.9392 34.3562 8.25796ZM14.5125 21.6017V11.4517L23.4312 16.5267L14.5125 21.6017Z" fill="white"/>
</svg>
